<svg version="1.0" xmlns="http://www.w3.org/2000/svg"
 width="250.000000pt" height="250.000000pt" viewBox="0 0 250.000000 250.000000"
 preserveAspectRatio="xMidYMid meet">

<g transform="translate(0.000000,250.000000) scale(0.100000,-0.100000)"
fill="#4FD8F1" stroke="none">
<path d="M1085 2489 c-188 -24 -425 -121 -580 -237 -474 -354 -636 -999 -386
-1528 128 -270 321 -465 586 -594 213 -105 435 -145 663 -122 158 16 283 52
427 122 265 129 458 324 586 594 218 460 126 1016 -230 1389 -272 285 -672
426 -1066 376z m287 -573 c40 -8 86 -19 102 -26 l30 -11 -50 -50 -50 -50 -77
12 c-355 53 -672 -265 -619 -618 45 -297 326 -507 620 -464 234 34 429 229
463 464 l11 77 65 0 65 0 -7 -62 c-20 -176 -75 -289 -200 -413 -145 -145 -277
-200 -485 -199 -96 1 -128 5 -195 27 -107 35 -193 88 -273 168 -80 80 -133
166 -169 274 -23 69 -26 97 -26 205 0 108 3 136 26 205 36 108 89 194 169 274
163 162 379 229 600 187z m151 -598 l-338 -338 -152 152 -153 153 45 45 45 45
105 -105 105 -105 292 292 293 293 47 -47 48 -48 -337 -337z"/>
</g>
</svg>
